# xmcd
#
# Track frame offsets:
#  150
#  9862
#  24435
#  39822
#  50045
#  63502
#  86125
#  95510
#  109040
#  118435
#
# Disc length: 1817 seconds
#
# Revision: 0
# Processed by: cddbd v1.4PL0 Copyright (c) Steve Scherf et al.
# Submitted via: AltoMP3_Maker 3.0
#
DISCID=7c07170a
DTITLE=The SeatSniffers - Born Again
DYEAR=1900
DGENRE=
TTITLE0=The river of Jordan
TTITLE1=There's a higher power
TTITLE2=Backwoods preacher man
TTITLE3=Kneel at the cross
TTITLE4=Pure religion
TTITLE5=Jesus died for me
TTITLE6=He walks on the water
TTITLE7=Jubilee
TTITLE8=The gospel way
TTITLE9=Taggin' along
EXTD=
EXTT0=
EXTT1=
EXTT2=
EXTT3=
EXTT4=
EXTT5=
EXTT6=
EXTT7=
EXTT8=
EXTT9=
PLAYORDER=
